<svg width="50" height="50" viewBox="0 0 50 50" fill="none" xmlns="http://www.w3.org/2000/svg">
<g clip-path="url(#clip0_284_328)">
<path d="M29.5093 38.9654C28.8354 38.8676 28.2593 39.3893 28.2593 40.0414V47.6497H2.17376V4.17376H28.2593V11.7495C28.2593 12.2929 28.6506 12.782 29.1832 12.8581C29.8571 12.9559 30.4332 12.4342 30.4332 11.7821V3.08693C30.4332 2.4891 29.9441 2 29.3463 2H1.08693C0.489104 2 0 2.4891 0 3.08693V48.7367C0 49.3345 0.489104 49.8236 1.08693 49.8236H29.3463C29.9441 49.8236 30.4332 49.3345 30.4332 48.7367V40.0741C30.4332 39.5306 30.0419 39.0415 29.5093 38.9654Z" fill="white"/>
<path d="M49.682 25.1509L38.8131 14.2819C38.3783 13.8689 37.6935 13.8797 37.2805 14.3036C36.8784 14.7275 36.8784 15.3906 37.2805 15.8144L46.291 24.8249H13.0753C12.5427 24.8249 12.0645 25.1944 11.9776 25.727C11.858 26.4117 12.3905 26.9986 13.0536 26.9986H46.3018L37.2805 36.009C36.8457 36.422 36.8349 37.1177 37.2588 37.5416C37.6718 37.9764 38.3675 37.9872 38.7914 37.5633C38.8023 37.5524 38.8131 37.5416 38.8131 37.5416L49.6821 26.6726C50.1059 26.2705 50.1059 25.5748 49.682 25.1509Z" fill="white"/>
</g>
<defs>
<clipPath id="clip0_284_328">
<rect width="50" height="50" fill="white"/>
</clipPath>
</defs>
</svg>
