<svg width="41" height="43" viewBox="0 0 41 43" fill="none" xmlns="http://www.w3.org/2000/svg">
<path d="M0.301862 15.9248C-0.141619 24.6941 6.63825 32.1963 15.4076 32.6398C19.2174 32.8324 22.7777 31.6728 25.632 29.5679L37.6694 42.8876L40.0722 40.7161L28.0348 27.3964C30.417 24.7691 31.9299 21.3438 32.1225 17.534C32.566 8.76472 25.7861 1.26258 17.0168 0.819099C8.24748 0.375619 0.745342 7.15549 0.301862 15.9248ZM3.48393 16.0857C3.84035 9.03796 9.80811 3.64475 16.8559 4.00117C23.9037 4.35759 29.2969 10.3253 28.9405 17.3731C28.584 24.4209 22.6163 29.8141 15.5685 29.4577C8.52072 29.1013 3.12751 23.1335 3.48393 16.0857Z" fill="#444444"/>
</svg>
